<svg width="11" height="7" viewBox="0 0 11 7" fill="none" xmlns="http://www.w3.org/2000/svg">
<path d="M5.34058e-05 1.16146C-0.00034523 1.31088 0.0255585 1.45852 0.0758619 1.59352C0.126165 1.72853 0.199591 1.84747 0.290741 1.9416L5.00458 6.77247C5.14516 6.91958 5.32149 7 5.50346 7C5.68544 7 5.86177 6.91958 6.00235 6.77247L10.7162 1.77157C10.8766 1.6018 10.9775 1.35785 10.9967 1.09337C11.0158 0.828898 10.9517 0.56557 10.8183 0.361317C10.685 0.157063 10.4933 0.028616 10.2856 0.00423193C10.0779 -0.0201521 9.87101 0.0615239 9.71057 0.231293L5.49954 4.7021L1.2885 0.38132C1.17318 0.259016 1.03276 0.181324 0.883841 0.157441C0.734923 0.133557 0.583747 0.164479 0.448202 0.24655C0.312658 0.32862 0.198417 0.458404 0.118997 0.620543C0.0395756 0.782683 -0.00169945 0.970392 5.34058e-05 1.16146Z" fill="#6F767E"/>
</svg>
